<?xml version="1.0" encoding="UTF-8"?>
<svg version="1.1" xmlns="http://www.w3.org/2000/svg" width="500" height="500">
<path d="M0 0 C2.015625 0.4765625 2.015625 0.4765625 5.015625 2.4765625 C5.71614961 5.1396255 5.79307318 7.71691987 6.015625 10.4765625 C8.03385417 10.63932292 10.05208333 10.80208333 12.0703125 10.96484375 C14.015625 11.4765625 14.015625 11.4765625 16.015625 14.4765625 C16.09467564 16.80855638 16.10361269 19.14488872 16.015625 21.4765625 C17.10875 21.4146875 18.201875 21.3528125 19.328125 21.2890625 C23.015625 21.4765625 23.015625 21.4765625 24.890625 22.6015625 C26.41993323 25.15040956 26.69033441 27.54894723 27.015625 30.4765625 C28.995625 30.4765625 30.975625 30.4765625 33.015625 30.4765625 C33.19738281 29.62771484 33.19738281 29.62771484 33.3828125 28.76171875 C33.55039063 28.02824219 33.71796875 27.29476562 33.890625 26.5390625 C34.13425781 25.44271484 34.13425781 25.44271484 34.3828125 24.32421875 C35.015625 22.4765625 35.015625 22.4765625 37.015625 21.4765625 C39.3486116 21.43633859 41.68269166 21.43336003 44.015625 21.4765625 C43.974375 20.5690625 43.933125 19.6615625 43.890625 18.7265625 C44.015625 15.4765625 44.015625 15.4765625 46.015625 11.4765625 C48.985625 11.4765625 51.955625 11.4765625 55.015625 11.4765625 C54.95375 10.2184375 54.891875 8.9603125 54.828125 7.6640625 C54.699666 5.05206286 54.71222632 3.89731351 56.2578125 1.75390625 C59.0459331 -0.27212805 61.37770428 -0.18534704 64.7421875 -0.0546875 C69.00065479 0.94041826 70.74712907 3.94779105 73.015625 7.4765625 C73.80453125 8.6521875 73.80453125 8.6521875 74.609375 9.8515625 C83.16290022 23.26885696 85.29638714 39.07584637 81.953125 54.6640625 C79.41989062 63.56039746 74.358174 71.77158213 68.015625 78.4765625 C64.82294985 80.07290007 61.48868885 79.84588626 58.015625 79.4765625 C56.015625 78.4765625 56.015625 78.4765625 55.015625 76.4765625 C54.78503193 73.75770931 54.88086677 71.21664658 55.015625 68.4765625 C53.736875 68.5178125 52.458125 68.5590625 51.140625 68.6015625 C48.9609375 68.671875 48.9609375 68.671875 47.015625 68.4765625 C46.355625 67.8165625 45.695625 67.1565625 45.015625 66.4765625 C47.26261068 77.6838394 50.05811351 88.72677852 52.91351318 99.79119873 C54.2621233 105.0181184 55.60100552 110.24753281 56.94140625 115.4765625 C57.20699341 116.51162933 57.47258057 117.54669617 57.74621582 118.61312866 C59.98762214 127.3526502 62.20370909 136.09825146 64.390625 144.8515625 C64.70555908 146.11202393 65.02049316 147.37248535 65.3449707 148.67114258 C67.65849865 157.96881324 69.91241389 167.2803386 72.11474609 176.60498047 C73.04827916 180.54258373 73.98384753 184.45111115 75.171875 188.3203125 C75.98239418 191.35225463 76.22614448 193.79260153 76.140625 196.9140625 C76.12257813 197.77902344 76.10453125 198.64398438 76.0859375 199.53515625 C76.06273437 200.17582031 76.03953125 200.81648437 76.015625 201.4765625 C71.35309816 201.77605328 68.79767918 201.15273479 64.828125 198.7265625 C48.26548821 189.21090126 30.52840601 187.22100448 11.8828125 191.28125 C4.8245252 193.24939116 -1.59865489 196.96481013 -7.984375 200.4765625 C-10.69316835 201.83095918 -12.99370768 201.54157701 -15.984375 201.4765625 C-16.2532 194.52248412 -15.33746911 188.63293278 -13.609375 181.9140625 C-13.20900024 180.30301636 -13.20900024 180.30301636 -12.80053711 178.65942383 C-12.03684758 175.59422174 -11.26369196 172.53156458 -10.48760986 169.46948242 C-9.61156364 166.00014814 -8.74992425 162.52723453 -7.88671875 159.0546875 C-6.26323062 152.53085943 -4.6320722 146.00898783 -2.99609375 139.48828125 C-0.66077027 130.1795327 1.66881423 120.86935589 3.99609375 111.55859375 C4.16719351 110.87407827 4.33829327 110.1895628 4.51457787 109.48430443 C5.37883276 106.02662633 6.24303311 102.5689346 7.10720825 99.11123657 C8.76644004 92.47250906 10.42622426 85.83391966 12.0859375 79.1953125 C12.65641504 76.91341203 13.22689054 74.63151105 13.79736328 72.34960938 C14.20345052 70.72526042 14.60953776 69.10091146 15.015625 67.4765625 C14.025625 67.9715625 14.025625 67.9715625 13.015625 68.4765625 C10.3432629 68.61071722 7.69312012 68.51974791 5.015625 68.4765625 C5.0775 69.7346875 5.139375 70.9928125 5.203125 72.2890625 C5.18083615 74.80770201 5.15064697 76.20651856 4.015625 78.4765625 C0.72353502 80.12260749 -2.4508779 80.19995561 -5.984375 79.4765625 C-8.609375 77.4765625 -8.609375 77.4765625 -10.984375 74.4765625 C-11.46648437 73.91839844 -11.94859375 73.36023438 -12.4453125 72.78515625 C-22.15242551 60.98386911 -23.94025624 47.27502025 -22.984375 32.4765625 C-21.48683007 20.95308117 -16.81758274 10.48227204 -8.91796875 1.87890625 C-5.98670322 -0.24700148 -3.53004011 -0.23451315 0 0 Z M-8.984375 37.4765625 C-8.984375 39.1265625 -8.984375 40.7765625 -8.984375 42.4765625 C-8.654375 42.4765625 -8.324375 42.4765625 -7.984375 42.4765625 C-7.984375 40.8265625 -7.984375 39.1765625 -7.984375 37.4765625 C-8.314375 37.4765625 -8.644375 37.4765625 -8.984375 37.4765625 Z M26.015625 48.4765625 C26.015625 50.1265625 26.015625 51.7765625 26.015625 53.4765625 C28.655625 53.4765625 31.295625 53.4765625 34.015625 53.4765625 C34.015625 51.8265625 34.015625 50.1765625 34.015625 48.4765625 C31.375625 48.4765625 28.735625 48.4765625 26.015625 48.4765625 Z M16.015625 58.4765625 C16.015625 60.4565625 16.015625 62.4365625 16.015625 64.4765625 C18.11794844 61.6081212 18.11794844 61.6081212 19.015625 58.4765625 C18.025625 58.4765625 17.035625 58.4765625 16.015625 58.4765625 Z M41.015625 58.4765625 C41.675625 60.7865625 42.335625 63.0965625 43.015625 65.4765625 C43.345625 65.4765625 43.675625 65.4765625 44.015625 65.4765625 C44.015625 63.1665625 44.015625 60.8565625 44.015625 58.4765625 C43.025625 58.4765625 42.035625 58.4765625 41.015625 58.4765625 Z M14.84765625 136.203125 C12.51404158 139.09899651 11.8899352 141.55362976 11.015625 145.1640625 C10.85610352 145.80964111 10.69658203 146.45521973 10.53222656 147.12036133 C10.19262945 148.50572556 9.85982888 149.8927703 9.53320312 151.28125 C8.99623996 153.55878434 8.43714346 155.83012182 7.875 158.1015625 C7.50407726 159.62212037 7.13426024 161.14294845 6.765625 162.6640625 C6.5903125 163.38231201 6.415 164.10056152 6.234375 164.84057617 C5.44599763 168.18362999 5.015625 171.01679883 5.015625 174.4765625 C5.69109375 174.27160156 6.3665625 174.06664062 7.0625 173.85546875 C7.95453125 173.58605469 8.8465625 173.31664062 9.765625 173.0390625 C10.64734375 172.77222656 11.5290625 172.50539063 12.4375 172.23046875 C18.30131042 170.51574843 23.53489976 170.25899663 29.640625 170.2265625 C30.58808594 170.2059375 31.53554687 170.1853125 32.51171875 170.1640625 C41.01223249 170.11754806 48.2410201 172.10756704 56.015625 175.4765625 C55.07095882 171.1803413 54.11997093 166.88573805 53.15625 162.59375 C52.41501094 159.29083899 51.69776808 155.98422113 51 152.671875 C50.67227923 151.16918262 50.34416995 149.6665749 50.015625 148.1640625 C49.87415039 147.46611572 49.73267578 146.76816895 49.58691406 146.04907227 C48.4216899 140.83169822 46.54671852 137.31932866 42.19140625 134.1484375 C32.53005716 129.36839896 23.60854471 129.225985 14.84765625 136.203125 Z " fill="#F8F8F6" transform="translate(220.984375,98.5234375)"/>
<path d="M0 0 C5.05568309 2.58949622 6.10702455 6.35573264 7.87329102 11.40698242 C10.31063645 19.17955291 12.21109109 27.10040129 14.1875 35 C14.67299355 36.92316347 15.15908594 38.84617586 15.64575195 40.76904297 C16.38622682 43.69543927 17.12620126 46.6219537 17.86393738 49.54904175 C19.36893083 55.51961373 20.89174331 61.48516717 22.4375 67.4453125 C22.62728928 68.17735397 22.81707855 68.90939545 23.01261902 69.66362 C23.38709578 71.10785159 23.76158191 72.55208076 24.13607788 73.99630737 C28.31304964 90.12095796 32.28676399 106.29145733 36.14355469 122.49560547 C36.71256999 124.82389669 37.30687125 127.14615925 37.92675781 129.46142578 C38.35359863 131.06026611 38.35359863 131.06026611 38.7890625 132.69140625 C39.0463916 133.62283447 39.3037207 134.5542627 39.56884766 135.51391602 C40.01241052 138.07156075 39.83844654 139.57035401 39 142 C37.51113281 141.20335937 37.51113281 141.20335937 35.9921875 140.390625 C16.69061205 130.27606397 -2.8749244 125.68192418 -24.2578125 131.7890625 C-29.39958278 133.45289213 -34.19953666 135.52977873 -39 138 C-44.89655172 141 -44.89655172 141 -47 141 C-45.58041299 134.47089478 -44.02383853 127.99032136 -42.375 121.515625 C-42.11580276 120.49397247 -41.85660553 119.47231995 -41.58955383 118.41970825 C-40.72839697 115.02928579 -39.86462651 111.63953923 -39 108.25 C-38.70153168 107.07979309 -38.40306335 105.90958618 -38.09555054 104.70391846 C-35.92421231 96.19715705 -33.7442569 87.6926226 -31.56157684 79.18876648 C-30.98417691 76.9383289 -30.40733866 74.68774795 -29.83062744 72.43713379 C-27.6029513 63.74522664 -25.36859256 55.05509406 -23.12051582 46.36843872 C-22.11694563 42.49045749 -21.11591007 38.61186706 -20.12133789 34.73156738 C-19.1789263 31.05564402 -18.2287592 27.3818112 -17.27272606 23.70940781 C-16.92051739 22.35119158 -16.57102551 20.99226751 -16.22445107 19.63260269 C-15.74732893 17.76275601 -15.25928475 15.89570652 -14.77075195 14.02880859 C-14.36443291 12.4556337 -14.36443291 12.4556337 -13.9499054 10.85067749 C-12.58583566 6.75708785 -11.07514633 3.82050641 -7.625 1.1875 C-4.68561092 -0.14222363 -3.17723032 -0.55601531 0 0 Z M-18.16796875 79.7265625 C-20.50158342 82.62243401 -21.1256898 85.07706726 -22 88.6875 C-22.15952148 89.33307861 -22.31904297 89.97865723 -22.48339844 90.64379883 C-22.82299555 92.02916306 -23.15579612 93.4162078 -23.48242188 94.8046875 C-24.01938504 97.08222184 -24.57848154 99.35355932 -25.140625 101.625 C-25.51154774 103.14555787 -25.88136476 104.66638595 -26.25 106.1875 C-26.4253125 106.90574951 -26.600625 107.62399902 -26.78125 108.36401367 C-27.56962737 111.70706749 -28 114.54023633 -28 118 C-27.32453125 117.79503906 -26.6490625 117.59007812 -25.953125 117.37890625 C-25.06109375 117.10949219 -24.1690625 116.84007812 -23.25 116.5625 C-22.36828125 116.29566406 -21.4865625 116.02882813 -20.578125 115.75390625 C-14.71431458 114.03918593 -9.48072524 113.78243413 -3.375 113.75 C-2.42753906 113.729375 -1.48007813 113.70875 -0.50390625 113.6875 C7.99660749 113.64098556 15.2253951 115.63100454 23 119 C22.05533382 114.7037788 21.10434593 110.40917555 20.140625 106.1171875 C19.39938594 102.81427649 18.68214308 99.50765863 17.984375 96.1953125 C17.65665423 94.69262012 17.32854495 93.1900124 17 91.6875 C16.85852539 90.98955322 16.71705078 90.29160645 16.57128906 89.57250977 C15.4060649 84.35513572 13.53109352 80.84276616 9.17578125 77.671875 C-0.48556784 72.89183646 -9.40708029 72.7494225 -18.16796875 79.7265625 Z " fill="#030303" transform="translate(254,155)"/>
<path d="M0 0 C6.58102367 4.23906893 6.58102367 4.23906893 8.1171875 8.34765625 C8.50583984 10.19423828 8.50583984 10.19423828 8.90234375 12.078125 C9.21620229 13.49926297 9.53278388 14.91980131 9.8515625 16.33984375 C10.10752197 17.50652588 10.10752197 17.50652588 10.36865234 18.69677734 C11.03259449 21.55754692 11.78090496 24.38752527 12.546875 27.22265625 C12.82217041 28.24319092 13.09746582 29.26372559 13.38110352 30.31518555 C13.92856313 32.33461419 14.47971647 34.35304582 15.03491211 36.37036133 C16.29868468 41.1059471 17.33161492 45.31421422 16.96484375 50.265625 C12.42882284 49.81202291 9.18112989 48.51861906 5.28515625 46.30078125 C-0.73280272 43.61600158 -6.77506122 42.87556405 -13.28515625 42.890625 C-14.02096924 42.89223633 -14.75678223 42.89384766 -15.51489258 42.89550781 C-24.87856601 43.1034309 -32.42999686 45.94201343 -40.03515625 51.265625 C-41.35515625 51.265625 -42.67515625 51.265625 -44.03515625 51.265625 C-43.4230783 45.63854618 -42.44382893 40.27347123 -41.07421875 34.78515625 C-40.88298431 34.00927658 -40.69174988 33.23339691 -40.49472046 32.43400574 C-40.09200119 30.80737169 -39.68682812 29.18134334 -39.27929688 27.5559082 C-38.6597809 25.07662288 -38.05418692 22.59419791 -37.44921875 20.11132812 C-37.05422786 18.52322773 -36.6584225 16.93532964 -36.26171875 15.34765625 C-35.9943541 14.24282646 -35.9943541 14.24282646 -35.72158813 13.11567688 C-34.46394586 8.17321941 -33.12573015 3.92904824 -29.046875 0.68359375 C-19.7619885 -4.23193439 -9.49675562 -4.73897508 0 0 Z M-28.203125 5.9921875 C-30.53673967 8.88805901 -31.16084605 11.34269226 -32.03515625 14.953125 C-32.19467773 15.59870361 -32.35419922 16.24428223 -32.51855469 16.90942383 C-32.8581518 18.29478806 -33.19095237 19.6818328 -33.51757812 21.0703125 C-34.05454129 23.34784684 -34.61363779 25.61918432 -35.17578125 27.890625 C-35.54670399 29.41118287 -35.91652101 30.93201095 -36.28515625 32.453125 C-36.46046875 33.17137451 -36.63578125 33.88962402 -36.81640625 34.62963867 C-37.60478362 37.97269249 -38.03515625 40.80586133 -38.03515625 44.265625 C-37.3596875 44.06066406 -36.68421875 43.85570312 -35.98828125 43.64453125 C-35.09625 43.37511719 -34.20421875 43.10570312 -33.28515625 42.828125 C-32.4034375 42.56128906 -31.52171875 42.29445313 -30.61328125 42.01953125 C-24.74947083 40.30481093 -19.51588149 40.04805913 -13.41015625 40.015625 C-12.46269531 39.995 -11.51523438 39.974375 -10.5390625 39.953125 C-2.03854876 39.90661056 5.19023885 41.89662954 12.96484375 45.265625 C12.02017757 40.9694038 11.06918968 36.67480055 10.10546875 32.3828125 C9.36422969 29.07990149 8.64698683 25.77328363 7.94921875 22.4609375 C7.62149798 20.95824512 7.2933887 19.4556374 6.96484375 17.953125 C6.82336914 17.25517822 6.68189453 16.55723145 6.53613281 15.83813477 C5.37090865 10.62076072 3.49593727 7.10839116 -0.859375 3.9375 C-10.52072409 -0.84253854 -19.44223654 -0.9849525 -28.203125 5.9921875 Z " fill="#F2F2F2" transform="translate(264.03515625,228.734375)"/>
<path d="M0 0 C0.42793185 2.92420095 0.65738789 5.11020225 -1.16015625 7.5703125 C-1.66417969 8.10398437 -2.16820312 8.63765625 -2.6875 9.1875 C-7.8712098 14.71515263 -11.51443503 22.39281545 -12 30 C-12.061875 30.70125 -12.12375 31.4025 -12.1875 32.125 C-12.8157196 44.37528213 -7.97928687 54.84909611 -0.265625 64.07421875 C0.15203125 64.70972656 0.5696875 65.34523438 1 66 C0.1875 68.75 0.1875 68.75 -1 71 C-3.625 71.4375 -3.625 71.4375 -7 71 C-13.9442818 64.79447158 -20.41281878 53.26970848 -21.17700195 43.80859375 C-21.64733558 25.60986787 -19.26027305 13.77678766 -7 0 C-4.3333581 -1.33332095 -2.83319697 -0.67102033 0 0 Z " fill="#9EA031" transform="translate(222,103)"/>
<path d="M0 0 C3.73095287 0.17147834 5.49312168 0.50304278 8.1953125 3.15234375 C18.04686575 17.37128599 20.42392034 29.91947266 19 47 C17.0318267 56.46643354 11.68508333 65.06377758 5 72 C2.8359375 72.8984375 2.8359375 72.8984375 1 73 C-0.8125 71.875 -0.8125 71.875 -2 70 C-2.10786717 66.22464895 -0.43487447 64.14168207 1.8125 61.3125 C8.7383134 52.52204453 10.9837769 42.00167409 10 31 C8.2468462 22.56482573 5.1795145 15.83695915 0 9 C-2 6 -2 6 -1.6875 3.375 C-1 1 -1 1 0 0 Z " fill="#9D9F2E" transform="translate(281,102)"/>
<path d="M0 0 C2.6875 0.5625 2.6875 0.5625 3.6875 1.5625 C3.99127952 4.46800412 3.9890371 6.0703687 2.4453125 8.58984375 C1.63707031 9.53537109 1.63707031 9.53537109 0.8125 10.5 C-3.65153787 16.1326893 -5.1271355 21.35806728 -4.3125 28.5625 C-3.30985039 33.62274726 -2.1349333 37.99612485 1.375 41.875 C3.6875 44.5625 3.6875 44.5625 4.125 47.3125 C3.6875 49.5625 3.6875 49.5625 1.6875 51.5625 C-1.203125 51.51171875 -1.203125 51.51171875 -4.3125 50.5625 C-6.359375 48.26953125 -6.359375 48.26953125 -8.0625 45.375 C-8.63484375 44.43269531 -9.2071875 43.49039063 -9.796875 42.51953125 C-14.11475347 34.0952168 -14.80055758 24.87828986 -12.625 15.64453125 C-10.33153402 9.48084144 -6.97965137 1.18522382 0 0 Z " fill="#050505" transform="translate(229.3125,112.4375)"/>
<path d="M0 0 C3.36296284 0.3550342 4.13896597 1.22862398 6.2890625 3.78125 C6.85882813 4.4309375 7.42859375 5.080625 8.015625 5.75 C11.97527542 11.83022149 13.24913251 17.84386983 13.2265625 25.03125 C13.22487061 25.81330811 13.22317871 26.59536621 13.22143555 27.40112305 C12.95589801 36.04485822 9.70317841 43.02879886 4.1015625 49.59375 C1.6640625 51.28125 1.6640625 51.28125 -1.1484375 51.09375 C-1.8703125 50.825625 -2.5921875 50.5575 -3.3359375 50.28125 C-4.046875 48.59375 -4.046875 48.59375 -4.3359375 46.28125 C-2.9375 43.84375 -2.9375 43.84375 -0.9609375 41.28125 C4.32807652 34.36970977 4.57116372 27.88885177 3.6640625 19.28125 C2.07405428 14.71887566 0.09482062 10.71200812 -3.3359375 7.28125 C-3.5234375 4.21875 -3.5234375 4.21875 -3.3359375 1.28125 C-2.3359375 0.28125 -2.3359375 0.28125 0 0 Z " fill="#060606" transform="translate(272.3359375,112.71875)"/>
<path d="M0 0 C1.9375 0.6875 1.9375 0.6875 4 2 C5 4.3125 5 4.3125 5 7 C4.01 8.11375 4.01 8.11375 3 9.25 C0.40966439 12.81171146 0.77162707 14.71009871 1.43359375 18.92578125 C2.11825803 21.43306907 3.40913831 22.97526694 5 25 C4.58974359 29.41025641 4.58974359 29.41025641 3 31 C-0.3125 31.125 -0.3125 31.125 -4 30 C-7.77041925 25.19435004 -8.64991309 19.32300115 -8.390625 13.359375 C-7.46282287 7.75545013 -4.18212786 3.73404274 0 0 Z " fill="#9D9F2F" transform="translate(239,122)"/>
<path d="M0 0 C3.49784173 0.09204847 4.73021741 0.72250933 7.1875 3.25 C10.54253146 8.34039256 11.93658059 12.8614477 11 19 C9.45467927 23.26295372 7.51869018 27.05578985 4 30 C1.3125 30.1875 1.3125 30.1875 -1 30 C-1.6875 27.75 -1.6875 27.75 -2 25 C-1.27876953 24.07960937 -1.27876953 24.07960937 -0.54296875 23.140625 C1.32122289 20.55435407 1.40384465 19.15368162 1.375 16 C1.38273437 15.154375 1.39046875 14.30875 1.3984375 13.4375 C0.92627425 10.5489719 -0.18432816 9.24707168 -2 7 C-2.3125 4.375 -2.3125 4.375 -2 2 C-1.34 1.34 -0.68 0.68 0 0 Z " fill="#9D9F2E" transform="translate(260,123)"/>
<path d="M0 0 C2.3125 1.25 2.3125 1.25 3.3125 2.25 C3.625 5.125 3.625 5.125 3.3125 8.25 C1.625 10.1875 1.625 10.1875 -0.6875 11.25 C-3.3125 11.125 -3.3125 11.125 -5.6875 10.25 C-7.6875 7.25 -7.6875 7.25 -7.5625 4.75 C-6.6875 2.25 -6.6875 2.25 -4.9375 0.3125 C-2.6875 -0.75 -2.6875 -0.75 0 0 Z " fill="#0D0D0D" transform="translate(252.6875,132.75)"/>
</svg>
